<svg width="149" height="35" viewBox="0 0 149 35" fill="none" xmlns="http://www.w3.org/2000/svg">
<path d="M29.8398 16.1745C30.0314 16.5078 30.1322 16.8855 30.1322 17.27C30.1322 17.6545 30.0314 18.0322 29.8398 18.3655L25.531 25.7989C25.3385 26.1308 25.0622 26.4063 24.7298 26.5979C24.3975 26.7894 24.0206 26.8904 23.637 26.8906L15.0656 26.8906C14.6846 26.8877 14.3109 26.7855 13.9815 26.594C13.652 26.4026 13.3782 26.1285 13.187 25.7989L8.87818 18.3655C8.68663 18.0322 8.58582 17.6545 8.58582 17.27C8.58582 16.8855 8.68663 16.5078 8.87818 16.1745L11.2583 12.0701L16.5546 21.1275C16.6418 21.2825 16.7691 21.4113 16.9232 21.5002C17.0772 21.5891 17.2524 21.6349 17.4302 21.6328L21.2877 21.6328C21.4656 21.6349 21.6408 21.5891 21.7948 21.5002C21.9489 21.4113 22.0762 21.2825 22.1634 21.1275L24.0921 17.7599C24.1795 17.6086 24.2255 17.437 24.2255 17.2623C24.2255 17.0876 24.1795 16.916 24.0921 16.7647L15.3973 1.72045C15.0956 1.19867 14.662 0.765398 14.14 0.464105C13.618 0.162813 13.0259 0.00408893 12.4232 0.00385911L11.644 0.00385914C10.9544 0.00359764 10.2769 0.184924 9.6797 0.529597C9.08244 0.87427 8.58648 1.37014 8.24169 1.96733L0.526706 15.3104C0.181668 15.9072 -7.84862e-07 16.5845 -7.54727e-07 17.2739C-7.24593e-07 17.9633 0.181668 18.6405 0.526706 19.2373L8.2417 32.5804C8.58697 33.1769 9.08314 33.672 9.68036 34.0159C10.2776 34.3599 10.9548 34.5407 11.644 34.54L27.074 34.54C27.7636 34.5403 28.441 34.3589 29.0383 34.0143C29.6355 33.6696 30.1315 33.1737 30.4763 32.5765L38.1913 19.2335C38.5363 18.6366 38.718 17.9594 38.718 17.27C38.718 16.5806 38.5363 15.9034 38.1913 15.3065L30.4763 1.96347C30.1315 1.36628 29.6355 0.870411 29.0383 0.525738C28.441 0.181065 27.7636 -0.00025847 27.074 3.09408e-06L20.5162 3.38073e-06L29.8398 16.1745Z" fill="#2ED480"/>
<path d="M52.468 27.27V9.27H59.9055C60.0805 9.27 60.3055 9.27834 60.5805 9.295C60.8555 9.30334 61.1097 9.32834 61.343 9.37C62.3847 9.52834 63.243 9.87417 63.918 10.4075C64.6013 10.9408 65.1055 11.6158 65.4305 12.4325C65.7638 13.2408 65.9305 14.1408 65.9305 15.1325C65.9305 16.5992 65.5597 17.8617 64.818 18.92C64.0763 19.97 62.9388 20.62 61.4055 20.87L60.118 20.9825H55.4805V27.27H52.468ZM62.8055 27.27L59.2555 19.945L62.318 19.27L66.218 27.27H62.8055ZM55.4805 18.17H59.7805C59.9472 18.17 60.1347 18.1617 60.343 18.145C60.5513 18.1283 60.743 18.095 60.918 18.045C61.418 17.92 61.8097 17.6992 62.093 17.3825C62.3847 17.0658 62.5888 16.7075 62.7055 16.3075C62.8305 15.9075 62.893 15.5158 62.893 15.1325C62.893 14.7492 62.8305 14.3575 62.7055 13.9575C62.5888 13.5492 62.3847 13.1867 62.093 12.87C61.8097 12.5533 61.418 12.3325 60.918 12.2075C60.743 12.1575 60.5513 12.1283 60.343 12.12C60.1347 12.1033 59.9472 12.095 59.7805 12.095H55.4805V18.17ZM75.1094 27.645C73.7427 27.645 72.5427 27.3492 71.5094 26.7575C70.4761 26.1658 69.6677 25.345 69.0844 24.295C68.5094 23.245 68.2219 22.0367 68.2219 20.67C68.2219 19.195 68.5052 17.9158 69.0719 16.8325C69.6386 15.7408 70.4261 14.895 71.4344 14.295C72.4427 13.695 73.6094 13.395 74.9344 13.395C76.3344 13.395 77.5219 13.7242 78.4969 14.3825C79.4802 15.0325 80.2094 15.9533 80.6844 17.145C81.1594 18.3367 81.3386 19.7408 81.2219 21.3575H78.2344V20.2575C78.2261 18.7908 77.9677 17.72 77.4594 17.045C76.9511 16.37 76.1511 16.0325 75.0594 16.0325C73.8261 16.0325 72.9094 16.4158 72.3094 17.1825C71.7094 17.9408 71.4094 19.0533 71.4094 20.52C71.4094 21.8867 71.7094 22.945 72.3094 23.695C72.9094 24.445 73.7844 24.82 74.9344 24.82C75.6761 24.82 76.3136 24.6575 76.8469 24.3325C77.3886 23.9992 77.8052 23.52 78.0969 22.895L81.0719 23.795C80.5552 25.0117 79.7552 25.9575 78.6719 26.6325C77.5969 27.3075 76.4094 27.645 75.1094 27.645ZM70.4594 21.3575V19.0825H79.7469V21.3575H70.4594ZM87.5418 27.645C86.5668 27.645 85.7418 27.4617 85.0668 27.095C84.3918 26.72 83.8793 26.2242 83.5293 25.6075C83.1876 24.9908 83.0168 24.3117 83.0168 23.57C83.0168 22.92 83.1251 22.3367 83.3418 21.82C83.5585 21.295 83.8918 20.845 84.3418 20.47C84.7918 20.0867 85.3751 19.7742 86.0918 19.5325C86.6335 19.3575 87.2668 19.1992 87.9918 19.0575C88.7251 18.9158 89.5168 18.7867 90.3668 18.67C91.2251 18.545 92.121 18.4117 93.0543 18.27L91.9793 18.8825C91.9876 17.9492 91.7793 17.2617 91.3543 16.82C90.9293 16.3783 90.2126 16.1575 89.2043 16.1575C88.596 16.1575 88.0085 16.2992 87.4418 16.5825C86.8751 16.8658 86.4793 17.3533 86.2543 18.045L83.5043 17.1825C83.8376 16.0408 84.471 15.1242 85.4043 14.4325C86.346 13.7408 87.6126 13.395 89.2043 13.395C90.4043 13.395 91.4585 13.5908 92.3668 13.9825C93.2835 14.3742 93.9626 15.0158 94.4043 15.9075C94.646 16.3825 94.7918 16.87 94.8418 17.37C94.8918 17.8617 94.9168 18.3992 94.9168 18.9825V27.27H92.2793V24.345L92.7168 24.82C92.1085 25.795 91.396 26.5117 90.5793 26.97C89.771 27.42 88.7585 27.645 87.5418 27.645ZM88.1418 25.245C88.8251 25.245 89.4085 25.1242 89.8918 24.8825C90.3751 24.6408 90.7585 24.345 91.0418 23.995C91.3335 23.645 91.5293 23.3158 91.6293 23.0075C91.7876 22.6242 91.8751 22.1867 91.8918 21.695C91.9168 21.195 91.9293 20.7908 91.9293 20.4825L92.8543 20.7575C91.946 20.8992 91.1668 21.0242 90.5168 21.1325C89.8668 21.2408 89.3085 21.345 88.8418 21.445C88.3751 21.5367 87.9626 21.6408 87.6043 21.7575C87.2543 21.8825 86.9585 22.0283 86.7168 22.195C86.4751 22.3617 86.2876 22.5533 86.1543 22.77C86.0293 22.9867 85.9668 23.2408 85.9668 23.5325C85.9668 23.8658 86.0501 24.1617 86.2168 24.42C86.3835 24.67 86.6251 24.87 86.9418 25.02C87.2668 25.17 87.6668 25.245 88.1418 25.245ZM98.4211 27.27V8.895H101.434V27.27H98.4211ZM112.79 27.645C110.99 27.645 109.449 27.2533 108.165 26.47C106.882 25.6783 105.895 24.5783 105.203 23.17C104.52 21.7617 104.178 20.1283 104.178 18.27C104.178 16.4117 104.52 14.7783 105.203 13.37C105.895 11.9617 106.882 10.8658 108.165 10.0825C109.449 9.29084 110.99 8.895 112.79 8.895C114.865 8.895 116.595 9.41584 117.978 10.4575C119.361 11.4908 120.332 12.8867 120.89 14.645L117.853 15.4825C117.503 14.3075 116.907 13.3908 116.065 12.7325C115.224 12.0658 114.132 11.7325 112.79 11.7325C111.582 11.7325 110.574 12.0033 109.765 12.545C108.965 13.0867 108.361 13.8492 107.953 14.8325C107.553 15.8075 107.349 16.9533 107.34 18.27C107.34 19.5867 107.54 20.7367 107.94 21.72C108.349 22.695 108.957 23.4533 109.765 23.995C110.574 24.5367 111.582 24.8075 112.79 24.8075C114.132 24.8075 115.224 24.4742 116.065 23.8075C116.907 23.1408 117.503 22.2242 117.853 21.0575L120.89 21.895C120.332 23.6533 119.361 25.0533 117.978 26.095C116.595 27.1283 114.865 27.645 112.79 27.645Z" fill="#11142D"/>
</svg>
